<svg xmlns="http://www.w3.org/2000/svg" xmlns:xlink="http://www.w3.org/1999/xlink" x="0px" y="0px" width="16px" height="64px" viewBox="0 0 16 32 48 64 78">

	<g  transform="translate(0, 0)"><polygon data-color="color-2" fill="#0c090d" points="7,4 7,11 9,11 9,4 11.4,4 8,0 4.6,4 "/>
<path fill="#0c090d" d="M15,16H1c-0.6,0-1-0.4-1-1V6c0-0.6,0.4-1,1-1h3v2H2v7h12V7h-2V5h3c0.6,0,1,0.4,1,1v9C16,15.6,15.6,16,15,16z
	"/></g>

	<g  transform="translate(0, 16)"><path fill="#0c090d" d="M8,0C3.6,0,0,3.6,0,8c0,4.4,3.6,8,8,8s8-3.6,8-8C16,3.6,12.4,0,8,0z M8,10c-1.1,0-2-0.9-2-2c0-1.1,0.9-2,2-2
	s2,0.9,2,2C10,9.1,9.1,10,8,10z M8,2c0.9,0,1.8,0.2,2.6,0.6L9,4.2C8.3,3.9,7.7,3.9,7,4.2L5.4,2.6C6.2,2.2,7.1,2,8,2z M2,8
	c0-0.9,0.2-1.8,0.6-2.6L4.2,7C3.9,7.7,3.9,8.3,4.2,9l-1.6,1.6C2.2,9.8,2,8.9,2,8z M8,14c-0.9,0-1.8-0.2-2.6-0.6L7,11.8
	c0.8,0.2,1.3,0.2,2.1,0l1.6,1.6C9.8,13.8,8.9,14,8,14z M13.4,10.6L11.8,9c0.2-0.8,0.2-1.3,0-2.1l1.6-1.6C13.8,6.2,14,7.1,14,8
	C14,8.9,13.8,9.8,13.4,10.6z"/></g>

	<g  transform="translate(0, 32)">
<path fill="#0c090d" d="M15,2h-2V1c0-0.6-0.4-1-1-1h-1c-0.6,0-1,0.4-1,1v1H6V1c0-0.6-0.4-1-1-1H4C3.4,0,3,0.4,3,1v1H1
	C0.4,2,0,2.4,0,3v12c0,0.6,0.4,1,1,1h14c0.6,0,1-0.4,1-1V3C16,2.4,15.6,2,15,2z M14,14H2V7h12V14z"/>
</g>

<g  transform="translate(0, 48)">
<path fill="#0c090d" d="M8,0C3.6,0,0,3.6,0,8s3.6,8,8,8s8-3.6,8-8S12.4,0,8,0z M13.9,9H8.7L6.9,4.6L5.1,5.4L6.5,9H2.1
	C2,8.7,2,8.3,2,8c0-3.3,2.7-6,6-6s6,2.7,6,6C14,8.3,14,8.7,13.9,9z"/>
</g>

<g  transform="translate(0, 64)">
<path fill="#0c090d" d="M8,0C3.6,0,0,3.6,0,8s3.6,8,8,8s8-3.6,8-8S12.4,0,8,0z M13.9,9H8.7L6.9,4.6L5.1,5.4L6.5,9H2.1
	C2,8.7,2,8.3,2,8c0-3.3,2.7-6,6-6s6,2.7,6,6C14,8.3,14,8.7,13.9,9z"/>

</g transform="translate(0, 78)">
<path fill="#0c090d" stroke="none" d=" M 28.6 14.4 Q 27.3 14.3 24.5 14.2 L -26.85 14.05 Q -27.6 13.95 -28.3 14.15 -29.4 14.4 -29.5 15.15 L -29.35 20.4 Q -29.25 25.7 -29.35 26.35 -29.05 26.4 -2.75 26.35 L 26.9 26.3 Q 29.05 26.4 29.25 25.15 29.4 24.65 29.5 23.4 L 29.5 15.4 Q 29.45 14.85 29.05 14.6 28.75 14.4 28.6 14.4 M 24.25 16.15 Q 25.9 16.1 27.6 16.35 L 27.6 23.4 27.65 24 Q 23.05 23.95 -3.05 24.1 -25.25 24.15 -27.05 24.35 L -27 16.3 19.65 16.15 Q 22.65 16.25 24.25 16.15 M 28.6 -5.95 Q 27.3 -6.05 24.5 -6.15 L -26.85 -6.3 Q -27.6 -6.4 -28.3 -6.2 -29.4 -5.95 -29.5 -5.2 L -29.35 0.05 Q -29.25 5.35 -29.35 6 -29.05 6.05 -2.75 6 L 26.9 5.95 Q 29.05 6.05 29.25 4.8 29.4 4.3 29.5 3.05 L 29.5 -4.95 Q 29.45 -5.5 29.05 -5.75 28.75 -5.95 28.6 -5.95 M 24.25 -4.2 Q 25.9 -4.25 27.6 -4 L 27.6 3.05 27.65 3.65 Q 23.05 3.6 -3.05 3.75 -25.25 3.8 -27.05 4 L -27 -4.05 19.65 -4.2 Q 22.65 -4.1 24.25 -4.2 M 29.5 -24.95 Q 29.45 -25.5 29.05 -25.75 28.75 -25.95 28.6 -25.95 27.3 -26.05 24.5 -26.15 L -26.85 -26.3 Q -27.6 -26.4 -28.3 -26.2 -29.4 -25.95 -29.5 -25.2 L -29.35 -19.95 Q -29.25 -14.65 -29.35 -14 -29.05 -13.95 -2.75 -14 L 26.9 -14.05 Q 29.05 -13.95 29.25 -15.2 29.4 -15.7 29.5 -16.95 L 29.5 -24.95 M 27.6 -24 L 27.6 -16.95 27.65 -16.35 Q 23.05 -16.4 -3.05 -16.25 -25.25 -16.2 -27.05 -16 L -27 -24.05 19.65 -24.2 Q 22.65 -24.1 24.25 -24.2 25.9 -24.25 27.6 -24 Z"/>
</g>



</svg>