<svg xmlns="http://www.w3.org/2000/svg" xmlns:xlink="http://www.w3.org/1999/xlink" version="1.1" preserveAspectRatio="none" x="0px" y="0px" viewBox="0 0 100 125"><defs><g id="a"><path fill="#000000" stroke="none" d=" M 28.6 14.4 Q 27.3 14.3 24.5 14.2 L -26.85 14.05 Q -27.6 13.95 -28.3 14.15 -29.4 14.4 -29.5 15.15 L -29.35 20.4 Q -29.25 25.7 -29.35 26.35 -29.05 26.4 -2.75 26.35 L 26.9 26.3 Q 29.05 26.4 29.25 25.15 29.4 24.65 29.5 23.4 L 29.5 15.4 Q 29.45 14.85 29.05 14.6 28.75 14.4 28.6 14.4 M 24.25 16.15 Q 25.9 16.1 27.6 16.35 L 27.6 23.4 27.65 24 Q 23.05 23.95 -3.05 24.1 -25.25 24.15 -27.05 24.35 L -27 16.3 19.65 16.15 Q 22.65 16.25 24.25 16.15 M 28.6 -5.95 Q 27.3 -6.05 24.5 -6.15 L -26.85 -6.3 Q -27.6 -6.4 -28.3 -6.2 -29.4 -5.95 -29.5 -5.2 L -29.35 0.05 Q -29.25 5.35 -29.35 6 -29.05 6.05 -2.75 6 L 26.9 5.95 Q 29.05 6.05 29.25 4.8 29.4 4.3 29.5 3.05 L 29.5 -4.95 Q 29.45 -5.5 29.05 -5.75 28.75 -5.95 28.6 -5.95 M 24.25 -4.2 Q 25.9 -4.25 27.6 -4 L 27.6 3.05 27.65 3.65 Q 23.05 3.6 -3.05 3.75 -25.25 3.8 -27.05 4 L -27 -4.05 19.65 -4.2 Q 22.65 -4.1 24.25 -4.2 M 29.5 -24.95 Q 29.45 -25.5 29.05 -25.75 28.75 -25.95 28.6 -25.95 27.3 -26.05 24.5 -26.15 L -26.85 -26.3 Q -27.6 -26.4 -28.3 -26.2 -29.4 -25.95 -29.5 -25.2 L -29.35 -19.95 Q -29.25 -14.65 -29.35 -14 -29.05 -13.95 -2.75 -14 L 26.9 -14.05 Q 29.05 -13.95 29.25 -15.2 29.4 -15.7 29.5 -16.95 L 29.5 -24.95 M 27.6 -24 L 27.6 -16.95 27.65 -16.35 Q 23.05 -16.4 -3.05 -16.25 -25.25 -16.2 -27.05 -16 L -27 -24.05 19.65 -24.2 Q 22.65 -24.1 24.25 -24.2 25.9 -24.25 27.6 -24 Z"/></g></defs><g transform="matrix( 1, 0, 0, 1, 50,50) "><g transform="matrix( 1, 0, 0, 1, 0,0) "><use xlink:href="#a"/></g></g><text x="0" y="115" fill="#000000" font-size="5px" font-weight="bold" font-family="'Helvetica Neue', Helvetica, Arial-Unicode, Arial, Sans-serif">Created by Jozef Malacký</text><text x="0" y="120" fill="#000000" font-size="5px" font-weight="bold" font-family="'Helvetica Neue', Helvetica, Arial-Unicode, Arial, Sans-serif">from the Noun Project</text></svg>